HIERARCHY
ROOT Hips
{
  OFFSET 1.44925e-005 102.336 -0.101585
  CHANNELS 6 Xposition Yposition Zposition Zrotation Xrotation Yrotation
  JOINT LeftUpLeg
  {
    OFFSET 8.9458 -8.66707 0.101652
    CHANNELS 3 Zrotation Xrotation Yrotation
    JOINT LeftLeg
    {
      OFFSET 0 -44.4227 1.3727
      CHANNELS 3 Zrotation Xrotation Yrotation
      JOINT LeftFoot
      {
        OFFSET -0.253549 -42.0924 -1.46059
        CHANNELS 3 Zrotation Xrotation Yrotation
        JOINT LeftToes
        {
          OFFSET -0.04 -4.41509 8.4991
          CHANNELS 3 Zrotation Xrotation Yrotation
          End Site
          {
            OFFSET 0.08 -0.047448 9.77979
          }
        }
      }
    }
  }
  JOINT Spine
  {
    OFFSET 0 11.8905 0
    CHANNELS 3 Zrotation Xrotation Yrotation
    JOINT Spine1
    {
      OFFSET 0 25.6574 0.127663
      CHANNELS 3 Zrotation Xrotation Yrotation
      JOINT RightShoulder
      {
        OFFSET -8.99 -0.362252 -0.22
        CHANNELS 3 Zrotation Xrotation Yrotation
        JOINT RightArm
        {
          OFFSET -10.2827 -0.00338 0.322123
          CHANNELS 3 Zrotation Xrotation Yrotation
          JOINT RightForeArm
          {
            OFFSET -26.364 0.099144 -1.42434
            CHANNELS 3 Zrotation Xrotation Yrotation
            JOINT RightHand
            {
              OFFSET -22.0324 0.085362 1.02216
              CHANNELS 3 Zrotation Xrotation Yrotation
              End Site
              {
                OFFSET -13.3284 -0.6 1.50291
              }
            }
          }
        }
      }
      JOINT LeftShoulder1
      {
        OFFSET 8.99 -0.362252 -0.22
        CHANNELS 3 Zrotation Xrotation Yrotation
        JOINT LeftArm
        {
          OFFSET 10.2827 -0.00337999 0.322123
          CHANNELS 3 Zrotation Xrotation Yrotation
          JOINT LeftForeArm
          {
            OFFSET 26.2597 0.099144 -1.42434
            CHANNELS 3 Zrotation Xrotation Yrotation
            JOINT LeftHand
            {
              OFFSET 22.0902 0.085362 1.02216
              CHANNELS 3 Zrotation Xrotation Yrotation
              End Site
              {
                OFFSET 13.419 -0.6 1.50291
              }
            }
          }
        }
      }
      JOINT Head
      {
        OFFSET 0 8.73416 0.011341
        CHANNELS 3 Zrotation Xrotation Yrotation
        End Site
        {
          OFFSET -0.29 12.7742 2.51395
        }
      }
    }
  }
  JOINT RightUpLeg
  {
    OFFSET -8.9458 -8.66707 0.101652
    CHANNELS 3 Zrotation Xrotation Yrotation
    JOINT RightLeg
    {
      OFFSET 0 -44.4227 1.3727
      CHANNELS 3 Zrotation Xrotation Yrotation
      JOINT RightFoot
      {
        OFFSET 0.253549 -42.0924 -1.46059
        CHANNELS 3 Zrotation Xrotation Yrotation
        JOINT RightToes
        {
          OFFSET 0.04 -4.41509 8.4991
          CHANNELS 3 Zrotation Xrotation Yrotation
          End Site
          {
            OFFSET -0.08 -0.137448 9.77979
          }
        }
      }
    }
  }
}
MOTION
Frames:	17
Frame Time:	0.0333333
115.535 102.677 10.3332 -2.70781 -0.910137 -91.1165 -0.270037 -0.196468 1.45511 1.07034 10.493 16.6279 -3.16778 -10.9156 -0.0348957 -1.33444e-009 8.75229e-006 -1.46861e-008 0.230329 9.22442 0.194297 -0.642356 -0.721848 0.409678 37.8373 1.81165 0.120106 42.2094 -19.917 11.0204 9.43876 36.1375 6.53763 -7.72268 9.72887 -2.70266 -45.6415 3.67839 -3.50421 -27.5811 -11.4103 -2.24841 -3.61116 36.8026 -15.504 5.82328 9.61819 -0.917488 -0.135594 -4.21398 -4.97427 -2.45272 0.0413953 -4.38988 -1.07584 12.3412 -7.84158 5.07194 -13.1509 0.038779 0.0462048 0.000530889 0.662642 
115.55 102.683 10.3332 -2.69997 -0.902723 -91.1228 -0.262789 -0.221349 1.46408 1.06588 10.514 16.5982 -3.13934 -10.8929 -0.034893 -1.33444e-009 8.75229e-006 -1.46861e-008 0.27053 9.21316 0.192766 -0.707796 -0.72593 0.421723 37.8644 1.81165 0.120106 42.1833 -19.9315 11.0498 9.45842 36.1248 6.50827 -7.52825 9.73579 -2.74537 -45.6513 3.6776 -3.50421 -27.5283 -11.361 -2.23559 -3.58866 36.772 -15.5378 5.82328 9.61819 -0.917488 -0.128113 -4.13912 -4.932 -2.4462 0.0681369 -4.35522 -1.09332 12.2506 -7.84848 5.29568 -13.103 0.0477465 0.0462048 0.000530889 0.662642 
115.578 102.689 10.3334 -2.68946 -0.893201 -91.1226 -0.243231 -0.263775 1.48204 1.0557 10.5449 16.55 -3.12609 -10.8718 -0.0348905 -1.33444e-009 8.75229e-006 -1.46861e-008 0.332512 9.18312 0.182059 -0.790762 -0.703854 0.425149 37.8723 1.81165 0.120106 42.1787 -19.8692 11.1075 9.4839 36.0155 6.50213 -7.26193 9.74321 -2.76993 -45.6359 3.67385 -3.50337 -27.4801 -11.3312 -2.22051 -3.55099 36.7552 -15.5836 5.82328 9.61819 -0.917488 -0.11625 -4.04615 -4.87374 -2.42464 0.0814732 -4.31398 -1.11077 12.1691 -7.91624 5.45696 -13.0224 0.0521333 0.0462048 0.000530889 0.662642 
115.614 102.691 10.3347 -2.67693 -0.888504 -91.087 -0.231422 -0.3229 1.48381 1.05642 10.5845 16.4967 -3.14783 -10.8562 -0.0348887 -1.33444e-009 8.75229e-006 -1.46861e-008 0.365041 9.193 0.155412 -0.842189 -0.730434 0.406502 37.8679 1.81165 0.120106 42.1611 -19.6654 11.1208 9.49454 35.7355 6.591 -7.14213 9.74505 -2.75447 -45.5762 3.66753 -3.50004 -27.4719 -11.225 -2.18704 -3.53745 36.6439 -15.6275 5.82328 9.61819 -0.917488 -0.0790852 -3.97688 -4.8708 -2.41082 0.0631135 -4.29468 -1.11117 12.1488 -8.00882 5.51791 -12.9563 0.0525557 0.0462048 0.000530889 0.662642 
115.654 102.692 10.337 -2.66857 -0.894105 -91.0329 -0.23817 -0.38655 1.46378 1.07195 10.6307 16.4481 -3.16073 -10.8359 -0.0348864 -1.33444e-009 8.75229e-006 -1.46861e-008 0.382375 9.26454 0.124559 -0.895477 -0.836787 0.38231 37.8665 1.81165 0.120106 42.1063 -19.4081 11.0619 9.46822 35.4143 6.7542 -7.22395 9.74475 -2.77725 -45.4834 3.65778 -3.49521 -27.4903 -10.979 -2.13629 -3.54824 36.4232 -15.6766 5.82328 9.61819 -0.917488 -0.0342821 -3.91871 -4.91787 -2.42027 0.0352744 -4.28809 -1.10436 12.1567 -8.0413 5.65349 -12.9497 0.0603016 0.0462048 0.000530889 0.662642 
115.694 102.693 10.3396 -2.67238 -0.897076 -91.0019 -0.24465 -0.425348 1.45112 1.07995 10.6586 16.4236 -3.1298 -10.8175 -0.0348842 -1.33444e-009 8.75229e-006 -1.46861e-008 0.432914 9.33884 0.106388 -0.980638 -0.932536 0.379546 37.8677 1.81165 0.120106 42.0711 -19.2585 10.9984 9.43038 35.2275 6.87657 -7.38544 9.74813 -2.88491 -45.3838 3.64462 -3.48483 -27.5279 -10.7349 -2.11345 -3.55121 36.2751 -15.7194 5.82328 9.61819 -0.917488 -0.0249599 -3.85961 -4.95584 -2.43046 0.00652145 -4.27582 -1.10879 12.1799 -8.00239 5.73617 -12.9985 0.0642797 0.0462048 0.000530889 0.662642 
115.728 102.694 10.3423 -2.68266 -0.888186 -91.012 -0.233427 -0.431846 1.46494 1.06535 10.649 16.43 -3.08819 -10.8091 -0.0348832 -1.33444e-009 8.75229e-006 -1.46861e-008 0.509524 9.36713 0.109096 -1.06275 -0.947453 0.401928 37.8487 1.81165 0.119847 42.0969 -19.2826 11.0015 9.43188 35.2045 6.86834 -7.4536 9.75191 -2.99698 -45.3044 3.63249 -3.47348 -27.5825 -10.6573 -2.14505 -3.53451 36.3188 -15.7335 5.82328 9.61819 -0.917488 -0.0244708 -3.79257 -4.96186 -2.41689 -0.028827 -4.25938 -1.12345 12.2152 -7.97334 5.56472 -13.0274 0.0575209 0.0462048 0.000530889 0.662642 
115.759 102.694 10.3448 -2.68396 -0.873535 -91.0328 -0.211553 -0.438664 1.48685 1.04508 10.6277 16.4392 -3.09259 -10.8011 -0.0348823 -1.33444e-009 8.75229e-006 -1.46861e-008 0.561765 9.37986 0.122853 -1.09652 -0.943493 0.426411 37.8315 1.81165 0.118493 42.1326 -19.4081 11.0423 9.4705 35.3033 6.764 -7.40921 9.75305 -3.00784 -45.2656 3.62722 -3.46866 -27.6306 -10.7218 -2.19526 -3.52143 36.4509 -15.7167 5.82328 9.61819 -0.917488 0.0376316 -3.71036 -4.96155 -2.3891 -0.0601396 -4.25284 -1.12642 12.2249 -8.02757 5.29289 -12.9723 0.0422817 0.0462048 0.000530889 0.662642 
115.79 102.695 10.3472 -2.66978 -0.856186 -91.0335 -0.18679 -0.481252 1.49847 1.0393 10.6434 16.4207 -3.13613 -10.7844 -0.0348804 -1.33444e-009 8.75229e-006 -1.46861e-008 0.587754 9.42472 0.133209 -1.09767 -1.01068 0.437574 37.8349 1.81165 0.116807 42.1133 -19.5283 11.0368 9.49218 35.5098 6.66714 -7.39637 9.74861 -2.92346 -45.2673 3.62655 -3.46664 -27.6463 -10.7905 -2.22058 -3.53254 36.5327 -15.6841 5.82328 9.61819 -0.917488 0.146154 -3.62915 -4.96358 -2.36448 -0.0777756 -4.25307 -1.10736 12.1881 -8.13998 5.19984 -12.8727 0.0338139 0.0462048 0.000530889 0.662642 
115.821 102.695 10.3513 -2.64804 -0.833426 -91.0284 -0.159467 -0.55275 1.50627 1.04156 10.701 16.3941 -3.15481 -10.7721 -0.0348789 -1.33444e-009 8.75229e-006 -1.46861e-008 0.628601 9.49067 0.138992 -1.11162 -1.12862 0.445337 37.8382 1.81165 0.115023 42.0554 -19.5783 10.9685 9.47552 35.7462 6.63453 -7.48432 9.73999 -2.80271 -45.2853 3.62789 -3.46564 -27.6359 -10.7899 -2.22721 -3.5579 36.5545 -15.6533 5.82328 9.61819 -0.917488 0.202059 -3.59114 -4.94728 -2.34504 -0.103248 -4.24358 -1.08654 12.1556 -8.2063 5.26489 -12.8255 0.0316372 0.0462048 0.000530889 0.662642 
115.85 102.695 10.3585 -2.63332 -0.817062 -91.044 -0.144641 -0.609691 1.51224 1.03832 10.7499 16.406 -3.12333 -10.7792 -0.0348798 -1.33444e-009 8.75229e-006 -1.46861e-008 0.677175 9.53968 0.144799 -1.13911 -1.20816 0.45741 37.8265 1.81165 0.113376 42.0114 -19.5495 10.9027 9.44873 35.8864 6.65372 -7.5421 9.72925 -2.63444 -45.3017 3.6306 -3.46564 -27.617 -10.7309 -2.23916 -3.5719 36.5375 -15.6477 5.82328 9.61819 -0.917488 0.171004 -3.61135 -4.91462 -2.33848 -0.149359 -4.22924 -1.08455 12.175 -8.16211 5.32617 -12.8541 0.0321111 0.0462048 0.000530889 0.662642 
115.873 102.695 10.3645 -2.6366 -0.819361 -91.0655 -0.154415 -0.622658 1.50577 1.03396 10.7556 16.4486 -3.09454 -10.7951 -0.0348816 -1.33444e-009 8.75229e-006 -1.46861e-008 0.683537 9.56352 0.146476 -1.1411 -1.21192 0.460772 37.8282 1.81165 0.1121 41.9822 -19.5042 10.888 9.41756 35.9636 6.69965 -7.45479 9.71832 -2.40024 -45.3249 3.63401 -3.46663 -27.5865 -10.6591 -2.25535 -3.57171 36.4726 -15.6744 5.82328 9.61819 -0.917488 0.123554 -3.64769 -4.89649 -2.35528 -0.178651 -4.23518 -1.08687 12.206 -8.06996 5.36634 -12.8837 0.0344223 0.0462048 0.000530889 0.662642 
115.889 102.695 10.366 -2.65289 -0.823296 -91.0652 -0.162022 -0.61151 1.50376 1.0359 10.747 16.4639 -3.11554 -10.799 -0.0348821 -1.33444e-009 8.75229e-006 -1.46861e-008 0.650753 9.5715 0.140281 -1.10931 -1.17385 0.44837 37.8651 1.81165 0.111429 41.9481 -19.5397 10.9039 9.35597 36.1276 6.75586 -7.31141 9.71156 -2.2089 -45.3635 3.63751 -3.46859 -27.5369 -10.6324 -2.26835 -3.57488 36.4046 -15.6935 5.82328 9.61819 -0.917488 0.109705 -3.65269 -4.89789 -2.37347 -0.161293 -4.25986 -1.06907 12.1883 -8.04083 5.37702 -12.8573 0.0377589 0.0462048 0.000530889 0.662642 
115.901 102.696 10.3655 -2.66262 -0.810145 -91.0609 -0.143483 -0.614691 1.51372 1.03952 10.7601 16.4462 -3.15122 -10.7894 -0.0348809 -1.33444e-009 8.75229e-006 -1.46861e-008 0.631333 9.56094 0.133326 -1.08281 -1.12827 0.435819 37.9094 1.81165 0.111597 41.9311 -19.6649 10.9252 9.28606 36.3275 6.7925 -7.23654 9.71367 -2.20944 -45.4044 3.64038 -3.47151 -27.4761 -10.6553 -2.28264 -3.5915 36.3856 -15.6705 5.82328 9.61819 -0.917488 0.096621 -3.63514 -4.88344 -2.36414 -0.140642 -4.26842 -1.04696 12.1534 -8.07702 5.30162 -12.8116 0.0413206 0.0462048 0.000530889 0.662642 
115.912 102.696 10.3636 -2.65761 -0.801161 -91.0837 -0.131272 -0.632192 1.52204 1.03664 10.7741 16.4556 -3.14413 -10.779 -0.0348797 -1.33444e-009 8.75229e-006 -1.46861e-008 0.622293 9.53261 0.12984 -1.07166 -1.07006 0.429809 37.9186 1.81165 0.113014 41.9665 -19.7593 10.9728 9.27858 36.3334 6.77927 -7.21207 9.72336 -2.37651 -45.4525 3.64509 -3.47557 -27.396 -10.6449 -2.29303 -3.6116 36.3393 -15.6488 5.82328 9.61819 -0.917488 0.0428717 -3.6457 -4.83636 -2.34957 -0.166997 -4.25248 -1.05346 12.1715 -8.08146 5.25023 -12.8029 0.0443128 0.0462048 0.000530889 0.662642 
115.924 102.697 10.3606 -2.65317 -0.818838 -91.1125 -0.153984 -0.634767 1.50857 1.03235 10.757 16.4995 -3.11319 -10.7728 -0.034879 -1.33444e-009 8.75229e-006 -1.46861e-008 0.561539 9.50591 0.123157 -1.01661 -0.987788 0.410857 37.8824 1.81165 0.117967 42.037 -19.7135 11.0554 9.33902 36.132 6.73849 -7.21322 9.73043 -2.5179 -45.5448 3.6572 -3.48499 -27.2763 -10.5571 -2.28739 -3.61478 36.1726 -15.6853 5.82328 9.61819 -0.917488 -0.0477569 -3.71056 -4.79515 -2.36663 -0.20648 -4.24953 -1.0727 12.2208 -8.0315 5.37229 -12.8193 0.045931 0.0462048 0.000530889 0.662642 
115.933 102.697 10.3534 -2.66033 -0.836896 -91.1048 -0.168433 -0.624259 1.50055 1.02832 10.7358 16.5057 -3.1124 -10.7683 -0.0348785 -1.33444e-009 8.75229e-006 -1.46861e-008 0.447312 9.50151 0.111753 -0.89012 -0.912599 0.371987 37.8316 1.81165 0.124031 42.0788 -19.5563 11.1112 9.3827 35.9441 6.74463 -7.29085 9.72734 -2.51407 -45.6644 3.67326 -3.49787 -27.1632 -10.5096 -2.28168 -3.60713 36.0142 -15.729 5.82328 9.61819 -0.917488 -0.144241 -3.79315 -4.79739 -2.39072 -0.204638 -4.27482 -1.06224 12.23 -8.01791 5.50954 -12.8215 0.045175 0.0462048 0.000530889 0.662642 
